<?xml version="1.0" encoding="UTF-8"?>
<svg width="31px" height="31px" viewBox="0 0 31 31" version="1.1" xmlns="http://www.w3.org/2000/svg" xmlns:xlink="http://www.w3.org/1999/xlink">
    
    <title>search</title>
    <desc>Created with Sketch.</desc>
    <defs>
        <linearGradient x1="50%" y1="0%" x2="50%" y2="99.0447173%" id="linearGradient-1">
            <stop stop-color="#B4B5C6" offset="0%"></stop>
            <stop stop-color="#8F90A1" offset="100%"></stop>
        </linearGradient>
    </defs>
    <g id="icons" stroke="none" stroke-width="1" fill="none" fill-rule="evenodd">
        <g id="ui-gambling-website-lined-icnos-casinoshunter" transform="translate(-1123.000000, -1905.000000)" fill="url(#linearGradient-1)" fill-rule="nonzero">
            <g id="4" transform="translate(50.000000, 1871.000000)">
                <path d="M1093.53553,37.5649712 C1097.71545,41.744885 1098.19238,48.291526 1094.83227,53.0042063 L1103.43503,61.6066017 C1104.21608,62.3876503 1104.21608,63.6539803 1103.43503,64.4350288 C1102.65398,65.2160774 1101.38765,65.2160774 1100.60664,64.4350681 L1092.00344,55.8328202 L1091.75807,56.0031681 C1087.06576,59.1747947 1080.67257,58.6431328 1076.56497,54.5355339 C1071.87868,49.8492424 1071.87868,42.2512627 1076.56497,37.5649712 C1081.25126,32.8786797 1088.84924,32.8786797 1093.53553,37.5649712 Z M1085.50185,57.0410364 L1085.46749,57.0423857 C1085.36908,57.0460984 1085.27062,57.0484969 1085.17215,57.0495813 C1085.28312,57.0483436 1085.39251,57.0455011 1085.50185,57.0410364 Z M1083.92571,56.9929689 L1083.99021,56.9993672 C1084.11183,57.0110735 1084.23362,57.0207601 1084.35551,57.0284268 C1084.21196,57.0193955 1084.06872,57.0075797 1083.92571,56.9929689 Z M1082.87397,56.8340273 L1083.10847,56.8784908 C1083.24177,56.9022744 1083.37542,56.9235881 1083.50936,56.9424317 C1083.29688,56.912542 1083.08493,56.8763982 1082.87397,56.8340273 Z M1087.02951,56.8717388 L1086.93717,56.8881375 C1086.90085,56.8944288 1086.8645,56.900537 1086.82813,56.9064621 C1086.89513,56.8955498 1086.96236,56.8839579 1087.02951,56.8717388 Z M1081.42744,56.4392229 L1081.66395,56.5184993 C1082.01247,56.6309276 1082.3655,56.7255279 1082.72159,56.8023002 C1082.28483,56.7081462 1081.85251,56.5871062 1081.42744,56.4392229 Z M1088.0674,56.630457 L1087.80716,56.7009727 C1087.66357,56.737995 1087.51938,56.7720742 1087.37469,56.8032102 C1087.60722,56.7531661 1087.83816,56.6956027 1088.0674,56.630457 Z M1089.09194,56.2838364 C1089.04305,56.3031169 1088.99405,56.3220336 1088.94495,56.3405865 L1088.94477,56.3406552 Z M1080.68815,56.1515692 L1080.82883,56.2111106 C1080.78187,56.1916224 1080.73502,56.1717947 1080.68828,56.1516276 L1080.68815,56.1515692 Z M1089.63885,56.0507767 L1089.49896,56.1137571 C1089.42288,56.1473668 1089.3465,56.1800718 1089.26984,56.2118722 C1089.3934,56.1606247 1089.51653,56.1068817 1089.63885,56.0507767 Z M1080.13921,55.8964396 L1080.26945,55.9603441 L1080.26945,55.9603441 L1080.28027,55.9655541 C1080.23312,55.9428716 1080.1861,55.9198335 1080.13921,55.8964396 Z M1079.35192,55.4622393 L1079.46575,55.5303325 C1079.62151,55.6222331 1079.77904,55.7099662 1079.9382,55.7935317 C1079.74034,55.6896525 1079.54472,55.5791749 1079.35192,55.4622393 Z M1091.49243,54.9684576 L1091.34995,55.0699201 C1091.26583,55.1288254 1091.18106,55.1864166 1091.09568,55.2426936 L1091.1113,55.2323789 C1091.23976,55.1473855 1091.36684,55.0594118 1091.49243,54.9684576 Z M1078.68629,39.6862915 C1075.17157,43.2010101 1075.17157,48.8994949 1078.68629,52.4142136 C1082.20101,55.9289322 1087.89949,55.9289322 1091.41421,52.4142136 C1094.92893,48.8994949 1094.92893,43.2010101 1091.41421,39.6862915 C1087.89949,36.1715729 1082.20101,36.1715729 1078.68629,39.6862915 Z M1092.08905,54.5042914 L1091.84681,54.700719 L1091.84681,54.700719 L1091.86366,54.6874254 L1091.86366,54.6874254 L1092.08905,54.5042914 Z M1077.55437,54.1010123 L1077.48404,54.0348667 C1077.69477,54.234757 1077.91147,54.4247092 1078.13356,54.6047233 C1077.93602,54.4445998 1077.74286,54.2767322 1077.55437,54.1010123 Z M1077.27208,53.8284271 L1077.48404,54.0348667 L1077.49485,54.0451147 L1077.49485,54.0451147 L1077.27208,53.8284271 L1077.27208,53.8284271 Z" id="search"></path>
            </g>
        </g>
    </g>
</svg>